HIERARCHY
ROOT Pelvis
{
	OFFSET 0.000000 0.000000 0.000000
	CHANNELS 6 Xposition Yposition Zposition Xrotation Yrotation Zrotation
	JOINT LeftUpLeg_virtual
	{
		OFFSET 0.000000 0.000000 0.000000
		CHANNELS 3 Xrotation Yrotation Zrotation
		JOINT LeftUpLeg
		{
			OFFSET 18.735201 -5.666702 -4.541200
			CHANNELS 3 Xrotation Yrotation Zrotation
			JOINT LeftLeg
			{
				OFFSET -0.021200 -31.938179 0.493100
				CHANNELS 3 Xrotation Yrotation Zrotation
				JOINT LeftFoot
				{
					OFFSET 0.021200 -31.938179 -4.336299
					CHANNELS 3 Xrotation Yrotation Zrotation
					JOINT LeftToeBase
					{
						OFFSET 0.943001 -26.722000 15.023500
						CHANNELS 3 Xrotation Yrotation Zrotation
						End Site
						{
							OFFSET 0 0 0
						}
					}
				}
			}
		}
	}
	JOINT RightUpLeg_virtual
	{
		OFFSET 0.000000 0.000000 0.000000
		CHANNELS 3 Xrotation Yrotation Zrotation
		JOINT RightUpLeg
		{
			OFFSET -18.735201 -5.666702 -4.541200
			CHANNELS 3 Xrotation Yrotation Zrotation
			JOINT RightLeg
			{
				OFFSET 0.018946 -31.938133 0.493100
				CHANNELS 3 Xrotation Yrotation Zrotation
				JOINT RightFoot
				{
					OFFSET -0.018946 -31.938126 -4.336299
					CHANNELS 3 Xrotation Yrotation Zrotation
					JOINT RightToeBase
					{
						OFFSET -0.943001 -26.722004 15.023500
						CHANNELS 3 Xrotation Yrotation Zrotation
						End Site
						{
							OFFSET 0 0 0
						}
					}
				}
			}
		}
	}
	JOINT Hips_virtual
	{
		OFFSET 0.000000 0.000000 0.000000
		CHANNELS 3 Xrotation Yrotation Zrotation
		JOINT Hips
		{
			OFFSET -0.000000 -0.000000 -0.000000
			CHANNELS 3 Xrotation Yrotation Zrotation
			JOINT Spine
			{
				OFFSET 0.000000 10.199997 -0.299500
				CHANNELS 3 Xrotation Yrotation Zrotation
				JOINT Spine1
				{
					OFFSET 0.000000 11.900002 -1.516600
					CHANNELS 3 Xrotation Yrotation Zrotation
					JOINT Spine2
					{
						OFFSET 0.000000 13.600006 -2.842500
						CHANNELS 3 Xrotation Yrotation Zrotation
						JOINT Neck_virtual
						{
							OFFSET 0.000000 0.000000 0.000000
							CHANNELS 3 Xrotation Yrotation Zrotation
							JOINT Neck
							{
								OFFSET 0.000000 9.624100 -2.890100
								CHANNELS 3 Xrotation Yrotation Zrotation
								JOINT Head
								{
									OFFSET 0.000000 14.068802 -1.351900
									CHANNELS 3 Xrotation Yrotation Zrotation
									End Site
									{
										OFFSET 0 0 0
									}
								}
							}
						}
						JOINT LeftShoulder_virtual
						{
							OFFSET 0.000000 0.000000 0.000000
							CHANNELS 3 Xrotation Yrotation Zrotation
							JOINT LeftShoulder
							{
								OFFSET 15.263000 10.923401 -0.547700
								CHANNELS 3 Xrotation Yrotation Zrotation
								JOINT LeftArm
								{
									OFFSET 25.438599 -2.830597 -13.032500
									CHANNELS 3 Xrotation Yrotation Zrotation
									JOINT LeftForeArm
									{
										OFFSET 29.960503 0.000000 0.000000
										CHANNELS 3 Xrotation Yrotation Zrotation
										JOINT LeftHand
										{
											OFFSET 27.849251 0.000000 0.000000
											CHANNELS 3 Xrotation Yrotation Zrotation
											End Site
											{
												OFFSET 0 0 0
											}
										}
									}
								}
							}
						}
						JOINT RightShoulder_virtual
						{
							OFFSET 0.000000 0.000000 0.000000
							CHANNELS 3 Xrotation Yrotation Zrotation
							JOINT RightShoulder
							{
								OFFSET -15.263000 10.923401 -0.547700
								CHANNELS 3 Xrotation Yrotation Zrotation
								JOINT RightArm
								{
									OFFSET -25.438599 -2.830597 -13.032500
									CHANNELS 3 Xrotation Yrotation Zrotation
									JOINT RightForeArm
									{
										OFFSET -29.960503 0.000000 0.000000
										CHANNELS 3 Xrotation Yrotation Zrotation
										JOINT RightHand
										{
											OFFSET -27.849251 0.000000 0.000000
											CHANNELS 3 Xrotation Yrotation Zrotation
											End Site
											{
												OFFSET 0 0 0
											}
										}
									}
								}
							}
						}
					}
				}
			}
		}
	}
}
MOTION
Frames: 6
Frame Time: 0.03333333
-0.031626 133.559479 4.652098 0.000000 0.000000 0.000000 -1.011406 1.574545 0.837726 -33.595856 8.709193 3.768310 43.309167 14.387734 1.452059 41.792702 2.535362 8.291205 0.000000 0.000000 0.000000 -1.011406 1.574545 0.837726 -11.028071 -6.941956 -6.611098 22.063574 -19.414300 1.569015 52.639356 0.362730 1.060453 0.000000 0.000000 0.000000 -1.011406 1.574545 0.837726 0.000000 0.000000 0.000000 -2.805794 -0.008241 -0.516978 -5.611654 -0.102272 -0.620860 0.000000 0.000000 0.000000 -5.611649 -0.102272 -0.620859 -5.558589 0.078776 -0.525492 0.000000 0.000000 0.000000 -5.611649 -0.102272 -0.620859 7.248321 6.365628 32.385158 -52.895314 -36.819890 5.857842 -23.466848 -23.506882 1.478701 0.000000 0.000000 0.000000 -5.611649 -0.102272 -0.620859 2.277537 -6.651283 -36.122576 -64.303861 35.763888 7.685053 -24.527665 16.757145 0.686871 0.000000 0.000000 0.000000 
0.423098 134.354889 3.645563 0.000000 0.000000 0.000000 -0.598408 0.900411 0.586900 -36.580113 8.185521 3.051116 46.011631 4.922676 0.915234 41.566383 1.976699 0.987297 0.000000 0.000000 0.000000 -0.598408 0.900411 0.586900 -14.811429 -6.158020 -9.608474 38.414555 -13.917279 4.185595 40.051321 1.866171 9.116668 0.000000 0.000000 0.000000 -0.598408 0.900411 0.586900 0.000000 0.000000 0.000000 -2.639904 0.330922 -0.161625 -5.279451 0.526127 -0.270102 0.000000 0.000000 0.000000 -5.279449 0.526128 -0.270102 -5.885458 0.038023 -0.715305 0.000000 0.000000 0.000000 -5.279449 0.526128 -0.270102 7.870904 7.117305 32.582270 -57.915872 -34.418464 -0.704290 -26.183267 -29.980118 4.243749 0.000000 0.000000 0.000000 -5.279449 0.526128 -0.270102 2.490095 -6.094539 -35.392848 -63.972399 33.630721 7.079523 -24.776948 22.588522 -0.847464 0.000000 0.000000 0.000000 
0.755607 135.250000 1.838156 0.000000 0.000000 0.000000 0.193848 -1.272555 0.377430 -41.028560 7.929214 1.362632 50.809156 -6.877565 0.057926 38.173603 2.956756 -4.458344 0.000000 0.000000 0.000000 0.193848 -1.272555 0.377430 -15.006001 -5.104065 -12.683647 48.424494 -2.324028 5.882301 26.277286 2.668727 22.158886 0.000000 0.000000 0.000000 0.193848 -1.272555 0.377430 0.000000 0.000000 0.000000 -2.454383 0.949131 0.100951 -4.910725 1.697762 0.223636 0.000000 0.000000 0.000000 -4.910725 1.697762 0.223636 -5.800434 -0.113642 -0.616908 0.000000 0.000000 0.000000 -4.910725 1.697762 0.223636 9.233541 8.752142 32.902357 -68.084726 -34.014164 -11.684625 -28.691897 -35.708478 10.607575 0.000000 0.000000 0.000000 -4.910725 1.697762 0.223636 2.685335 -5.556064 -34.635346 -64.359602 32.111581 6.818232 -24.909982 27.211866 -2.862131 0.000000 0.000000 0.000000 
0.911754 136.180130 -1.056658 0.000000 0.000000 0.000000 1.372905 -5.965391 0.496878 -45.681490 7.900861 -0.703035 56.518275 -17.282156 -1.115506 30.660702 5.477305 -7.485196 0.000000 0.000000 0.000000 1.372905 -5.965391 0.496878 -11.364040 -4.474620 -14.984306 48.213394 5.884405 6.096769 19.580612 1.994185 30.321795 0.000000 0.000000 0.000000 1.372905 -5.965391 0.496878 0.000000 0.000000 0.000000 -2.246514 1.893584 -0.003938 -4.534727 3.469904 0.884206 0.000000 0.000000 0.000000 -4.534732 3.469906 0.884206 -5.418287 -0.314501 -0.371759 0.000000 0.000000 0.000000 -4.534732 3.469906 0.884206 11.294373 11.203105 33.051647 -80.408737 -34.056112 -23.606493 -29.576167 -39.839346 20.033894 0.000000 0.000000 0.000000 -4.534732 3.469906 0.884206 2.906459 -4.949839 -33.790886 -65.165407 31.264074 6.922772 -25.133915 30.857999 -4.805778 0.000000 0.000000 0.000000 
1.109930 137.526245 -4.558884 0.000000 0.000000 0.000000 2.725813 -13.688156 0.501605 -48.016606 7.442200 -1.896049 60.064964 -22.055740 -2.507557 19.980228 8.538592 -7.056775 0.000000 0.000000 0.000000 2.725813 -13.688156 0.501605 -7.012077 -4.597877 -15.580584 41.456520 5.705369 4.915902 23.036073 -0.356774 27.474137 0.000000 0.000000 0.000000 2.725813 -13.688156 0.501605 0.000000 -0.000001 0.000000 -2.005275 3.081214 0.054568 -4.130058 5.793612 1.615224 0.000000 0.000000 0.000000 -4.130057 5.793611 1.615224 -4.928214 -0.488285 -0.155993 0.000000 0.000000 0.000000 -4.130057 5.793611 1.615224 13.763036 14.232864 32.629832 -88.943809 -34.043500 -30.861011 -28.978140 -42.260542 28.890361 0.000000 0.000000 0.000000 -4.130057 5.793611 1.615224 3.198336 -4.228737 -33.081813 -66.224080 31.575944 7.487491 -26.023497 32.552535 -5.524294 0.000000 0.000000 0.000000 
1.100820 138.738708 -8.450920 0.000000 0.000000 0.000000 3.954486 -23.844409 0.690429 -47.649326 6.749278 -2.263895 60.823839 -18.990083 -3.421414 8.884106 10.092353 -2.937194 0.000000 0.000000 0.000000 3.954486 -23.844409 0.690429 -4.059570 -4.838340 -14.968283 29.321917 0.631942 2.943835 34.876377 -3.692020 16.598876 0.000000 0.000000 0.000000 3.954486 -23.844409 0.690429 0.000000 0.000001 0.000000 -1.681974 4.413859 0.059696 -3.605110 8.522691 2.216127 0.000000 0.000000 0.000000 -3.605112 8.522702 2.216127 -4.359586 -0.600630 0.018644 0.000000 0.000000 0.000000 -3.605112 8.522702 2.216127 16.294424 17.628851 31.433330 -90.046202 -34.488958 -30.807568 -28.576907 -43.682366 33.446309 0.000000 0.000000 0.000000 -3.605112 8.522702 2.216127 3.581645 -3.487962 -33.043321 -67.642205 33.723455 8.410952 -27.796862 30.284949 -4.416853 0.000000 0.000000 0.000000 
